<svg width="200" height="80" viewBox="0 0 200 80" fill="none" xmlns="http://www.w3.org/2000/svg">
<path fill-rule="evenodd" clip-rule="evenodd" d="M51.9766 4.0021C56.0064 -1.33404 63.4857 -1.33403 64.0405 4.00211L66.4376 27.0598L70.088 22.6565C74.1673 17.7356 80.8235 17.7356 81.6982 22.6565L90.0368 69.5676C90.8623 74.2116 85.8602 79.8207 80.8932 79.8207L48.7333 79.7594H48.6139C48.1806 79.773 47.7409 79.6333 47.3832 79.3327C47.1238 79.1147 46.9406 78.8399 46.8365 78.5419C44.858 79.6615 42.5045 80.2389 39.9313 79.9066C37.1985 79.5536 34.3677 78.195 31.5752 75.6463C27.1195 71.5798 24.367 67.4551 22.7935 63.5379C20.7022 68.0952 17.3009 73.3105 11.5641 79.2892C11.1705 79.6993 10.3997 79.8044 9.73965 79.8044H4.76127C0.0248694 79.8044 -1.55912 74.8916 1.76017 70.4963L51.9766 4.0021ZM39.6107 36.9042C37.3985 37.2273 35.707 37.8753 34.6474 38.7884L34.4912 38.923C33.0556 40.1597 31.0441 41.8926 29.237 43.764C27.2991 45.771 25.8669 47.6701 25.4392 49.1028C23.8051 54.5771 23.9035 63.7154 34.0353 72.9624C36.3987 75.1194 38.5607 76.062 40.3991 76.2994C42.2298 76.5358 43.8879 76.0934 45.3026 75.2218C48.2391 73.4126 49.9598 69.8713 49.7351 67.1808C49.455 63.8264 47.5454 60.5077 45.2044 57.7044C42.8827 54.9244 40.3148 52.8639 39.0844 52.0453C38.2469 51.4882 38.0206 50.3591 38.5789 49.5233C39.1373 48.6876 40.2689 48.4618 41.1064 49.019C42.6098 50.0191 45.4445 52.3104 48.0046 55.3759C50.5454 58.4183 52.9969 62.4391 53.3676 66.8788C53.4933 68.3841 53.2485 69.9716 52.696 71.5018C54.1704 70.5214 55.4412 70.0542 56.6394 69.6137L56.6493 69.6101C58.2067 69.0375 59.7469 68.9101 61.2022 68.932C62.1327 68.946 63.1368 69.0282 64.0863 69.1058C64.5486 69.1437 64.9983 69.1805 65.42 69.2078C68.0967 69.3813 70.7025 69.2863 73.6024 67.5804C72.5954 67.7362 71.4694 67.8192 70.1995 67.8171C66.6276 67.8113 63.8741 66.7951 61.967 65.7245C61.0165 65.191 60.2786 64.6455 59.7533 64.2079C59.4902 63.9889 59.2805 63.7969 59.1243 63.6471C58.9791 63.508 58.8501 63.375 58.8546 63.3795C58.1428 62.6693 58.1428 61.5178 58.8545 60.8075C59.5663 60.0973 60.7202 60.0973 61.432 60.8075L61.4547 60.8307C61.7807 61.1664 64.6976 64.1709 70.2054 64.1798C73.1935 64.1847 74.9332 63.6511 76.0901 63.0167C77.1497 62.4357 77.8302 61.7264 78.6693 60.8517L78.6708 60.8501L78.8444 60.6694C79.1884 59.5913 79.3737 58.5577 79.4222 57.6667C79.4409 57.3231 79.4385 57.0168 79.4213 56.7481C78.7751 56.7286 78.1717 56.6203 77.6155 56.4154C76.5573 56.0256 75.8036 55.3342 75.3135 54.5282C74.8504 53.7666 74.6372 52.9333 74.5599 52.1674C72.5065 51.9061 70.1587 51.4545 67.9244 50.9087C65.1422 50.229 62.3862 49.3671 60.5337 48.4721C60.6441 50.1789 60.5122 51.7059 60.1826 52.3402C58.3652 54.3186 57.2948 55.0754 55.8878 55.424C54.1144 55.8633 52.3195 54.7633 51.119 53.3888C51.0237 53.2796 50.9272 53.1696 50.8297 53.0586C49.702 51.774 48.4538 50.3522 47.5815 48.4828C46.9057 47.0344 47.6069 45.3786 48.9825 44.5609C52.4572 42.4951 54.6086 41.9241 57.0389 41.7903C56.5544 41.0137 56.0312 40.3707 55.43 39.825C53.8101 38.3549 51.3735 37.3798 46.7974 36.8817C44.2991 36.6097 41.7922 36.5857 39.6107 36.9042ZM53.4582 47.4123L50.749 46.3121L50.9003 49.2269L53.6096 50.3271L53.4582 47.4123Z" fill="#201C1B"/>
<path d="M118.382 28.2792L107.06 44.0655L106.525 56.9331H96.7682L97.0152 44.1478L91.1282 28.8959L101.626 27.5803L103.273 36.4601L108.501 27.5803L118.382 28.2792Z" fill="#201C1B"/>
<path d="M166.548 58.9057C165.903 59.7142 165.107 60.4199 164.161 61.0228C163.214 61.6258 162.198 62.126 161.114 62.5234C160.03 62.9208 158.918 63.2154 157.779 63.4072C156.64 63.6128 155.556 63.7156 154.527 63.7156C152.537 63.7156 150.705 63.3593 149.031 62.6467C147.357 61.9341 145.909 60.9543 144.688 59.7073C143.48 58.4466 142.533 56.9666 141.847 55.2674C141.161 53.5682 140.818 51.7388 140.818 49.7792C140.818 48.2855 140.99 46.8261 141.333 45.4009C141.676 43.9621 142.163 42.6123 142.794 41.3516C143.439 40.0771 144.221 38.9124 145.141 37.8572C146.06 36.7883 147.103 35.8702 148.27 35.1028C149.436 34.3354 150.712 33.7393 152.098 33.3145C153.484 32.8897 154.966 32.6773 156.544 32.6773C157.134 32.6773 157.766 32.7047 158.438 32.7595C159.111 32.8006 159.776 32.8828 160.435 33.0062C161.107 33.1158 161.759 33.2734 162.39 33.4789C163.022 33.6845 163.598 33.938 164.119 34.2395L163.543 42.0916C162.775 41.8038 161.979 41.6119 161.155 41.516C160.346 41.4064 159.55 41.3516 158.767 41.3516C157.67 41.3516 156.64 41.5229 155.68 41.8654C154.733 42.1943 153.903 42.6739 153.189 43.3043C152.489 43.9347 151.934 44.7021 151.522 45.6065C151.11 46.5109 150.904 47.5318 150.904 48.6692C150.904 49.3818 151 50.0738 151.193 50.7453C151.385 51.403 151.673 51.9923 152.057 52.513C152.455 53.02 152.942 53.4311 153.519 53.7463C154.109 54.0615 154.788 54.2191 155.556 54.2191C156.078 54.2191 156.613 54.1506 157.162 54.0135C157.725 53.8765 158.205 53.6435 158.603 53.3147L158.685 51.7114L153.745 51.6291L153.992 45.4626C156.037 45.3941 158.081 45.3393 160.126 45.2982C162.171 45.2433 164.229 45.1748 166.301 45.0926L166.548 58.9057Z" fill="#201C1B"/>
<path d="M190.685 54.7612C189.802 55.643 188.846 56.394 187.817 57.0141C186.799 57.6246 185.736 58.0945 184.63 58.424C183.533 58.7631 182.408 58.9569 181.253 59.0054C180.118 59.0538 178.992 58.9472 177.876 58.6856C176.77 58.4337 175.693 58.0267 174.645 57.4647C173.607 56.893 172.636 56.1566 171.734 55.2554C170.861 54.3833 170.138 53.4386 169.565 52.4212C169.002 51.4134 168.575 50.3669 168.284 49.2817C168.003 48.1867 167.862 47.0772 167.862 45.9532C167.882 44.8292 168.037 43.7246 168.328 42.6393C168.639 41.5541 169.08 40.5027 169.653 39.4853C170.235 38.4776 170.958 37.5425 171.821 36.6801C172.665 35.8371 173.592 35.1152 174.601 34.5144C175.62 33.904 176.678 33.4292 177.774 33.09C178.881 32.7606 180.006 32.5668 181.151 32.5086C182.296 32.4505 183.422 32.5377 184.528 32.7703C185.644 33.0125 186.716 33.4049 187.745 33.9476C188.773 34.4902 189.724 35.1976 190.597 36.0696C192.004 37.4747 193.067 38.9717 193.785 40.5609C194.513 42.1597 194.877 43.773 194.877 45.4009C194.896 47.0288 194.552 48.6421 193.843 50.241C193.154 51.8398 192.101 53.3465 190.685 54.7612ZM183.844 48.6857C184.261 48.2691 184.601 47.804 184.863 47.2904C185.144 46.7769 185.319 46.2536 185.387 45.7207C185.464 45.178 185.421 44.6403 185.256 44.1073C185.11 43.5744 184.814 43.085 184.368 42.6393C183.912 42.1839 183.422 41.8593 182.898 41.6655C182.374 41.4717 181.835 41.3893 181.282 41.4184C180.748 41.4475 180.22 41.588 179.696 41.8399C179.181 42.0822 178.711 42.4164 178.284 42.8428C177.876 43.2498 177.527 43.7149 177.236 44.2381C176.945 44.7614 176.751 45.304 176.654 45.866C176.557 46.428 176.576 46.9803 176.712 47.523C176.857 48.0753 177.158 48.5792 177.614 49.0346C178.07 49.49 178.565 49.8098 179.099 49.9939C179.652 50.178 180.205 50.2458 180.758 50.1973C181.321 50.1392 181.869 49.9793 182.403 49.7177C182.937 49.4561 183.417 49.1121 183.844 48.6857Z" fill="#201C1B"/>
<path d="M135.355 55.1464C134.472 56.0282 133.516 56.7792 132.487 57.3993C131.469 58.0098 130.406 58.4797 129.3 58.8092C128.203 59.1483 127.078 59.3421 125.923 59.3906C124.788 59.439 123.662 59.3324 122.546 59.0708C121.44 58.8189 120.363 58.4119 119.315 57.8499C118.277 57.2782 117.306 56.5418 116.404 55.6406C115.531 54.7685 114.808 53.8238 114.235 52.8063C113.672 51.7986 113.246 50.7521 112.954 49.6669C112.673 48.5719 112.532 47.4624 112.532 46.3384C112.552 45.2144 112.707 44.1098 112.998 43.0245C113.309 41.9393 113.75 40.8879 114.323 39.8705C114.905 38.8627 115.628 37.9277 116.491 37.0653C117.336 36.2223 118.262 35.5004 119.271 34.8996C120.29 34.2892 121.348 33.8144 122.444 33.4752C123.551 33.1458 124.676 32.952 125.821 32.8938C126.966 32.8357 128.092 32.9229 129.198 33.1555C130.314 33.3977 131.386 33.7901 132.415 34.3328C133.443 34.8754 134.394 35.5828 135.267 36.4548C136.674 37.8599 137.737 39.3569 138.455 40.946C139.183 42.5449 139.547 44.1582 139.547 45.7861C139.566 47.414 139.222 49.0273 138.513 50.6261C137.824 52.225 136.772 53.7317 135.355 55.1464ZM128.514 49.0709C128.931 48.6543 129.271 48.1892 129.533 47.6756C129.814 47.162 129.989 46.6388 130.057 46.1059C130.134 45.5632 130.091 45.0254 129.926 44.4925C129.78 43.9596 129.484 43.4702 129.038 43.0245C128.582 42.5691 128.092 42.2445 127.568 42.0507C127.044 41.8569 126.505 41.7745 125.952 41.8036C125.418 41.8327 124.89 41.9732 124.366 42.2251C123.851 42.4673 123.381 42.8016 122.954 43.228C122.546 43.635 122.197 44.1001 121.906 44.6233C121.615 45.1466 121.421 45.6892 121.324 46.2512C121.227 46.8132 121.246 47.3655 121.382 47.9082C121.527 48.4605 121.828 48.9643 122.284 49.4198C122.74 49.8752 123.235 50.1949 123.769 50.3791C124.322 50.5632 124.875 50.631 125.428 50.5825C125.991 50.5244 126.539 50.3645 127.073 50.1029C127.607 49.8413 128.087 49.4973 128.514 49.0709Z" fill="#201C1B"/>
<path d="M6.11939 79.8045L6.00842 80H79.6119L79.6261 79.8183L48.7333 79.7594H48.6139C48.1806 79.773 47.7409 79.6333 47.3832 79.3328C47.1237 79.1147 46.9405 78.8399 46.8364 78.5419C44.858 79.6615 42.5045 80.2389 39.9312 79.9066C37.1985 79.5536 34.3676 78.195 31.5751 75.6464C27.1195 71.5798 24.3669 67.4551 22.7935 63.5379C20.7022 68.0952 17.3009 73.3105 11.564 79.2892C11.1705 79.6993 10.3997 79.8045 9.73963 79.8045H6.11939Z" fill="white"/>
<path d="M34.6473 38.7884C35.7069 37.8753 37.3985 37.2273 39.6107 36.9043C41.7921 36.5857 44.2991 36.6097 46.7973 36.8817C51.3735 37.3798 53.8101 38.3549 55.4299 39.825C56.0312 40.3707 56.5544 41.0137 57.0389 41.7903C54.6085 41.9241 52.4571 42.4952 48.9824 44.5609C47.6069 45.3786 46.9057 47.0344 47.5815 48.4828C48.4538 50.3522 49.702 51.7741 50.8297 53.0586C50.9271 53.1697 51.0237 53.2796 51.119 53.3888C52.3195 54.7633 54.1144 55.8633 55.8877 55.424C57.2948 55.0754 58.3652 54.3186 60.1826 52.3402C60.5122 51.7059 60.644 50.1789 60.5337 48.4721C62.3861 49.3671 65.1422 50.229 67.9244 50.9087C70.1586 51.4545 72.5065 51.9061 74.5599 52.1674C74.6372 52.9333 74.8504 53.7666 75.3135 54.5282C75.8036 55.3342 76.5573 56.0256 77.6155 56.4154C78.1717 56.6203 78.7751 56.7287 79.4213 56.7481C79.4385 57.0168 79.4409 57.3231 79.4222 57.6667C79.3737 58.5577 79.1883 59.5913 78.8443 60.6694L78.6708 60.8501L78.6693 60.8517C77.8301 61.7264 77.1497 62.4357 76.09 63.0167C74.9331 63.6511 73.1935 64.1847 70.2054 64.1799C64.6976 64.1709 61.7806 61.1664 61.4547 60.8307L61.432 60.8075C60.7202 60.0973 59.5663 60.0973 58.8545 60.8075C58.1428 61.5178 58.1428 62.6693 58.8545 63.3795C58.8501 63.375 58.9791 63.508 59.1242 63.6471C59.2805 63.7969 59.4902 63.9889 59.7532 64.208C60.2786 64.6456 61.0165 65.191 61.9669 65.7245C63.8741 66.7951 66.6276 67.8113 70.1994 67.8171C71.4694 67.8192 72.5954 67.7362 73.6024 67.5804C70.7025 69.2863 68.0966 69.3813 65.4199 69.2078C64.9992 69.1805 64.5507 69.1439 64.0895 69.1061L64.0863 69.1059C63.1367 69.0282 62.1327 68.946 61.2022 68.932C59.7468 68.9101 58.2067 69.0375 56.6493 69.6101L56.6394 69.6137C55.4412 70.0542 54.1704 70.5214 52.6959 71.5019C53.2484 69.9716 53.4933 68.3841 53.3676 66.8788C52.9968 62.4391 50.5453 58.4183 48.0046 55.3759C45.4444 52.3104 42.6097 50.0191 41.1063 49.019C40.2688 48.4618 39.1373 48.6876 38.5789 49.5234C38.0206 50.3591 38.2469 51.4882 39.0844 52.0454C40.3148 52.8639 42.8826 54.9244 45.2043 57.7044C47.5454 60.5077 49.455 63.8264 49.7351 67.1809C49.9598 69.8713 48.2391 73.4126 45.3026 75.2218C43.8879 76.0935 42.2297 76.5358 40.3991 76.2994C38.5607 76.062 36.3987 75.1195 34.0352 72.9624C23.9035 63.7154 23.805 54.5771 25.4392 49.1028C25.8668 47.6701 27.299 45.771 29.237 43.764C31.0441 41.8926 33.0555 40.1597 34.4912 38.923L34.6473 38.7884Z" fill="white"/>
<path d="M50.749 46.3122L53.4582 47.4123L53.6095 50.3271L50.9003 49.2269L50.749 46.3122Z" fill="white"/>
</svg>
